<svg xmlns="http://www.w3.org/2000/svg" viewBox="0 0 64 80" x="0px" y="0px"><title>_</title><g data-name="Pet File"><path d="M35.32764,15.06335c.29785.04932.61132-.23144.731-.35546a3.07108,3.07108,0,0,0,.73047-1.564c.227-1.28955-.273-2.22607-.71728-2.3042a.39761.39761,0,0,0-.06885-.00586c-.45264,0-1.17676.70117-1.39258,1.92578C34.3833,14.04871,34.8833,14.98523,35.32764,15.06335Z"/><path d="M26.26855,25.37292a6.642,6.642,0,0,0-.97509.67725,1.79768,1.79768,0,0,0-.11719,2.33057,3.25955,3.25955,0,0,0,3.17285.67138,5.59983,5.59983,0,0,0,1.3252-.59765,4.98427,4.98427,0,0,1,2.36523-.81543,4.98435,4.98435,0,0,1,2.36524.81543,5.62247,5.62247,0,0,0,1.32519.59814,3.26435,3.26435,0,0,0,3.17285-.67187,1.79822,1.79822,0,0,0-.1167-2.33057,4.065,4.065,0,0,0-.82031-.52685,5.26734,5.26734,0,0,1-2.04-1.708,6.58852,6.58852,0,0,1-.82617-1.88623,5.47117,5.47117,0,0,0-.49854-1.249,2.98615,2.98615,0,0,0-2.561-.96093h-.002a3.04649,3.04649,0,0,0-2.50635.98535,5.61347,5.61347,0,0,0-.57861,1.30957,7.56985,7.56985,0,0,1-.74854,1.67822A5.56484,5.56484,0,0,1,26.26855,25.37292Z"/><path d="M22.40332,18.15564c.32324.88769.92871,1.20947,1.104,1.147.1753-.06347.43116-.6997.10791-1.58838-.29736-.81591-.832-1.15429-1.05322-1.15429a.14422.14422,0,0,0-.05078.00781c-.06885.0249-.1626.1499-.21728.37256a2.17181,2.17181,0,0,0,.10937,1.21484Z"/><path d="M41.59668,18.15564v-.00049c.32324-.88769.06738-1.52392-.1084-1.58789a.15639.15639,0,0,0-.05078-.00781c-.2207,0-.75537.33887-1.05273,1.15527-.32325.88819-.06739,1.52442.10839,1.58838C40.66309,19.36169,41.273,19.04431,41.59668,18.15564Z"/><path d="M50,4.81866H14a2,2,0,0,0-2,2V57.18134a2,2,0,0,0,2,2H50a2,2,0,0,0,2-2V6.81866A2,2,0,0,0,50,4.81866Zm-7.82764,9.86921c1.39405.5083,1.96631,2.33154,1.30323,4.15185a3.4066,3.4066,0,0,1-2.93311,2.47168,2.14394,2.14394,0,0,1-.7334-.1289c-1.39355-.50831-1.96582-2.33155-1.30322-4.15186C39.16846,15.20935,40.78027,14.183,42.17236,14.68787Zm-9.53173-2.27539C33.044,10.12439,34.69824,8.5614,36.419,8.87c1.71533.30273,2.74316,2.33251,2.33984,4.6206v.00049A5.03936,5.03936,0,0,1,37.502,16.09216a2.94251,2.94251,0,0,1-2.10254.97754,2.425,2.425,0,0,1-.41943-.03662C33.26514,16.73035,32.23779,14.70056,32.64063,12.41248Zm3.65673,7.208a7.14772,7.14772,0,0,1,.71143,1.71289,4.91306,4.91306,0,0,0,.55615,1.33594A3.32877,3.32877,0,0,0,38.916,23.76355a5.82833,5.82833,0,0,1,1.21142.80322,3.80512,3.80512,0,0,1,.33594,5.06494,4.5996,4.5996,0,0,1-3.67871,1.53955,6.72669,6.72669,0,0,1-1.50879-.17089,7.2567,7.2567,0,0,1-1.8374-.79493,3.56141,3.56141,0,0,0-1.39893-.5664,3.56132,3.56132,0,0,0-1.39892.5664,7.23883,7.23883,0,0,1-1.83741.79444c-1.59033.37207-3.90332.23437-5.1875-1.36817a3.80466,3.80466,0,0,1,.33643-5.06494,8.227,8.227,0,0,1,1.27051-.89844,3.86685,3.86685,0,0,0,1.30078-1.05957,6.0278,6.0278,0,0,0,.5415-1.2539,7.29016,7.29016,0,0,1,.81641-1.77979,4.81519,4.81519,0,0,1,4.15918-1.85595C34.57715,17.71912,35.75537,18.7533,36.29736,19.62048ZM27.58057,8.87c1.71679-.29737,3.37548,1.2539,3.77881,3.542.40283,2.28857-.62452,4.31836-2.33936,4.62109a2.425,2.425,0,0,1-.41943.03662,2.94251,2.94251,0,0,1-2.10254-.97754,5.03936,5.03936,0,0,1-1.25684-2.60107V13.4906C24.83789,11.20251,25.86572,9.17273,27.58057,8.87Zm-7.229,7.59277a2.42545,2.42545,0,0,1,1.47608-1.7749c1.38965-.50489,3.0039.52148,3.6665,2.34228s.09033,3.644-1.30273,4.15186a2.137,2.137,0,0,1-.7334.12939,3.40651,3.40651,0,0,1-2.9336-2.47217v.00049A4.15037,4.15037,0,0,1,20.35156,16.46277ZM45,55.16882H19a1,1,0,0,1,0-2H45a1,1,0,0,1,0,2Zm0-5.6665H19a1,1,0,0,1,0-2H45a1,1,0,0,1,0,2Zm0-5.6665H19a1,1,0,0,1,0-2H45a1,1,0,0,1,0,2Zm0-5.667H19a1,1,0,0,1,0-2H45a1,1,0,0,1,0,2Z"/><path d="M27.94141,14.70789c.11963.124.43115.40576.731.35546.44434-.07812.94434-1.01464.71729-2.30419-.227-1.28858-1.0127-1.9917-1.46192-1.91944-.44384.07813-.94384,1.01465-.71679,2.3042A3.07108,3.07108,0,0,0,27.94141,14.70789Z"/></g><text x="0" y="79" fill="#000000" font-size="5px" font-weight="bold" font-family="'Helvetica Neue', Helvetica, Arial-Unicode, Arial, Sans-serif">Created by Andy Horvath</text><text x="0" y="84" fill="#000000" font-size="5px" font-weight="bold" font-family="'Helvetica Neue', Helvetica, Arial-Unicode, Arial, Sans-serif">from the Noun Project</text></svg>