<svg y="0px" x="0px" viewBox="0 1.248 65.92 63.2" xmlns="http://www.w3.org/2000/svg" style="max-height: 500px" width="65.92" height="63.2"><title>_</title><g data-name="Vet Day"><path d="M59,14v3.88H5V14a3.99887,3.99887,0,0,1,4-4v3a3,3,0,0,0,6,0V10H29v3a3,3,0,0,0,6,0V10H49v3a3,3,0,0,0,6,0V10A3.99887,3.99887,0,0,1,59,14Z"/><path d="M39.08105,44.7619a6.01856,6.01856,0,0,1-2.333-1.95019,7.583,7.583,0,0,1-.94727-2.16651,6.541,6.541,0,0,0-.60156-1.5039c-.50195-.80225-1.5625-1.209-3.15234-1.209h-.002a3.73433,3.73433,0,0,0-3.083,1.23047A6.72487,6.72487,0,0,0,28.2627,40.739a8.7609,8.7609,0,0,1-.86133,1.93408,6.377,6.377,0,0,1-2.2168,1.918,7.86032,7.86032,0,0,0-1.16894.813,2.26494,2.26494,0,0,0-.15625,2.97119c.82031,1.023,2.5498,1.16407,3.89648.84815a6.68892,6.68892,0,0,0,1.59863-.71875,5.633,5.633,0,0,1,2.69239-.93506,5.63026,5.63026,0,0,1,2.69042.93457,6.69548,6.69548,0,0,0,1.59961.71924c1.34864.31445,3.07715.17334,3.89649-.84864a2.26434,2.26434,0,0,0-.15625-2.9707A4.86622,4.86622,0,0,0,39.08105,44.7619Z"/><path d="M28.39941,32.81415c.6836-.12061,1.249-1.3877.98243-2.90332-.26856-1.51319-1.22559-2.52783-1.916-2.39209-.68359.1206-1.249,1.38769-.98242,2.90332C26.752,31.93719,27.7207,32.93915,28.39941,32.81415Z"/><path d="M35.69336,32.81415c.67285.123,1.64746-.877,1.916-2.39209.2666-1.51563-.29883-2.78272-.98243-2.90332a.62906.62906,0,0,0-.11425-.00977c-.67286,0-1.54786.96973-1.80176,2.40235C34.44434,31.42645,35.00977,32.69354,35.69336,32.81415Z"/><path d="M23.48828,37.22137a2.73059,2.73059,0,0,0-.13476-1.52636c-.3877-1.06348-1.167-1.57813-1.51661-1.44922-.34765.12646-.61718,1.02246-.23046,2.08447v-.00049c.38671,1.062,1.17089,1.57959,1.51757,1.44971A.76364.76364,0,0,0,23.48828,37.22137Z"/><path d="M42.16211,34.2453a.33167.33167,0,0,0-.11523-.01855c-.38282,0-1.05176.51123-1.4004,1.46777a2.73268,2.73268,0,0,0-.13476,1.52685.76372.76372,0,0,0,.36523.5586c.3418.12256,1.12989-.38867,1.5166-1.4502S42.51074,34.37225,42.16211,34.2453Z"/><path d="M5,19.875V53a4,4,0,0,0,4,4H55a4,4,0,0,0,4-4V19.875Zm27.74219,9.68915c.457-2.58887,2.30957-4.353,4.23242-4.01514,1.916.33789,3.06055,2.63086,2.60352,5.21973v.00049c-.419,2.37548-2.01954,4.05615-3.76075,4.05615a2.71666,2.71666,0,0,1-.47168-.04151C33.42969,34.446,32.28516,32.153,32.74219,29.56415Zm-5.624-4.01514c1.917-.34228,3.77539,1.42529,4.23243,4.01465s-.6875,4.88232-2.60352,5.22021a2.71658,2.71658,0,0,1-.47168.04151c-1.74121,0-3.3418-1.68067-3.76074-4.05615v-.00049C24.05762,28.17987,25.20215,25.8869,27.11816,25.549ZM19.72754,37.01532v-.001c-.74414-2.04394-.11816-4.08593,1.4248-4.64795,1.55079-.5625,3.33692.60059,4.08008,2.64454a4.69012,4.69012,0,0,1,.19824,2.688,2.67786,2.67786,0,0,1-1.62207,1.96,2.3452,2.3452,0,0,1-.80273.14112A3.82883,3.82883,0,0,1,19.72754,37.01532ZM41.794,49.62518c-1.458,1.81934-4.09473,1.97022-5.91211,1.54541a8.35562,8.35562,0,0,1-2.11036-.91552,4.26349,4.26349,0,0,0-1.7246-.68555,4.25652,4.25652,0,0,0-1.72559.686,8.37214,8.37214,0,0,1-2.11035.915,7.72191,7.72191,0,0,1-1.73438.19727,5.22361,5.22361,0,0,1-4.17773-1.74219,4.28883,4.28883,0,0,1,.375-5.70508,9.48621,9.48621,0,0,1,1.46582-1.03466A4.64019,4.64019,0,0,0,25.71973,41.59a7.16593,7.16593,0,0,0,.65527-1.51026,8.30427,8.30427,0,0,1,.93652-2.0459A5.47579,5.47579,0,0,1,32.044,35.93231h.00293c2.89648,0,4.23535,1.16846,4.84765,2.14893A8.143,8.143,0,0,1,37.71,40.0495a5.89018,5.89018,0,0,0,.67676,1.61621,4.08765,4.08765,0,0,0,1.64453,1.33643,6.67047,6.67047,0,0,1,1.3877.91845A4.28824,4.28824,0,0,1,41.794,49.62518Zm2.47851-12.61084v.001A3.82989,3.82989,0,0,1,40.99414,39.8a2.33923,2.33923,0,0,1-.80176-.14063,2.67863,2.67863,0,0,1-1.623-1.96045,4.692,4.692,0,0,1,.19824-2.68847c.74316-2.04346,2.5293-3.20459,4.0791-2.64453C44.39063,32.92841,45.0166,34.9704,44.27246,37.01434Z"/><path d="M13,7v6a1,1,0,0,1-2,0V7a1,1,0,0,1,2,0Z"/><path d="M33,7v6a1,1,0,0,1-2,0V7a1,1,0,0,1,2,0Z"/><path d="M53,7v6a1,1,0,0,1-2,0V7a1,1,0,0,1,2,0Z"/></g><text font-family="'Helvetica Neue', Helvetica, Arial-Unicode, Arial, Sans-serif" font-weight="bold" font-size="5px" fill="#000000" y="79" x="0">Created by Andy Horvath</text><text font-family="'Helvetica Neue', Helvetica, Arial-Unicode, Arial, Sans-serif" font-weight="bold" font-size="5px" fill="#000000" y="84" x="0">from the Noun Project</text></svg>