<svg xml:space="preserve" style="max-height: 500px" viewBox="0 3.9 101 93.25" y="0px" x="0px" version="1.1" xmlns:xlink="http://www.w3.org/1999/xlink" xmlns="http://www.w3.org/2000/svg" width="101" height="93.25"><switch><g><g><path d="M5273.1,2400.1v-2c0-2.8-5-4-9.7-4s-9.7,1.3-9.7,4v2c0,1.8,0.7,3.6,2,4.9l5,4.9c0.3,0.3,0.4,0.6,0.4,1v6.4     c0,0.4,0.2,0.7,0.6,0.8l2.9,0.9c0.5,0.1,1-0.2,1-0.8v-7.2c0-0.4,0.2-0.7,0.4-1l5.1-5C5272.4,2403.7,5273.1,2401.9,5273.1,2400.1z      M5263.4,2400c-4.8,0-7.4-1.3-7.5-1.8v0c0.1-0.5,2.7-1.8,7.5-1.8c4.8,0,7.3,1.3,7.5,1.8C5270.7,2398.7,5268.2,2400,5263.4,2400z"/><path d="M5268.4,2410.3c-0.6,0-1,0.4-1,1c0,0.6,0.4,1,1,1h4.3c0.6,0,1-0.4,1-1c0-0.6-0.4-1-1-1H5268.4z"/><path d="M5272.7,2413.7h-4.3c-0.6,0-1,0.4-1,1c0,0.6,0.4,1,1,1h4.3c0.6,0,1-0.4,1-1C5273.7,2414.1,5273.3,2413.7,5272.7,2413.7z"/><path d="M5272.7,2417h-4.3c-0.6,0-1,0.4-1,1c0,0.6,0.4,1,1,1h4.3c0.6,0,1-0.4,1-1C5273.7,2417.5,5273.3,2417,5272.7,2417z"/></g><g><path d="M94.2,8.1H5.8c-1.8,0-3.3,1.5-3.3,3.3v77.2c0,1.2,0.7,2.4,1.8,2.9c1.1,0.6,2.4,0.5,3.4-0.2l9.1-6.5l9.1,6.5     c1.1,0.8,2.7,0.8,3.8,0l9.1-6.5l9.1,6.5c1.1,0.8,2.7,0.8,3.8,0l9.1-6.5l9.1,6.5c1.1,0.8,2.7,0.8,3.8,0l9.1-6.5l9.1,6.5     c0.6,0.4,1.2,0.6,1.9,0.6c0.5,0,1-0.1,1.5-0.4c1.1-0.6,1.8-1.7,1.8-2.9V11.4C97.5,9.6,96,8.1,94.2,8.1z M90.9,82.2L85.1,78     c-1.1-0.8-2.7-0.8-3.8,0l-9.1,6.5L63,78c-0.6-0.4-1.2-0.6-1.9-0.6c-0.7,0-1.3,0.2-1.9,0.6L50,84.6L40.9,78     c-1.1-0.8-2.7-0.8-3.8,0l-9.1,6.5L18.8,78c-1.1-0.8-2.7-0.8-3.8,0l-5.8,4.2V14.7h81.8V82.2z"/><path d="M61.3,33.9h17.4c1.8,0,3.3-1.5,3.3-3.3s-1.5-3.3-3.3-3.3H61.3c-1.8,0-3.3,1.5-3.3,3.3S59.5,33.9,61.3,33.9z"/><path d="M61.3,49.9h17.4c1.8,0,3.3-1.5,3.3-3.3c0-1.8-1.5-3.3-3.3-3.3H61.3c-1.8,0-3.3,1.5-3.3,3.3     C58.1,48.4,59.5,49.9,61.3,49.9z"/><path d="M61.3,65.9h17.4c1.8,0,3.3-1.5,3.3-3.3c0-1.8-1.5-3.3-3.3-3.3H61.3c-1.8,0-3.3,1.5-3.3,3.3     C58.1,64.4,59.5,65.9,61.3,65.9z"/><path d="M17.2,51.4c0,1.6,1.3,2.9,2.9,2.9h3.8C26.5,61.7,32.9,67,40.4,67c4.2,0,8.3-1.7,11.5-4.7c1.3-1.2,1.4-3.3,0.1-4.6     c-1.2-1.3-3.3-1.3-4.6-0.1c-2,1.9-4.5,2.9-7,2.9c-4,0-7.4-2.5-9.5-6.2h9.4c1.6,0,2.9-1.3,2.9-2.9c0-1.6-1.3-2.9-2.9-2.9H29.2     c-0.1-0.6-0.2-1.3-0.2-1.9c0-0.6,0.1-1.3,0.2-1.9h11.1c1.6,0,2.9-1.3,2.9-2.9c0-1.6-1.3-2.9-2.9-2.9h-9.4c2-3.7,5.5-6.2,9.5-6.2     c2.5,0,5,1,7,2.9c1.3,1.2,3.4,1.2,4.6-0.1c1.2-1.3,1.2-3.4-0.1-4.6c-3.3-3.1-7.2-4.7-11.5-4.7c-7.5,0-13.9,5.3-16.5,12.7h-3.8     c-1.6,0-2.9,1.3-2.9,2.9c0,1.6,1.3,2.9,2.9,2.9h2.6c-0.1,0.6-0.2,1.2-0.2,1.9c0,0.6,0.1,1.3,0.2,1.9h-2.6     C18.5,48.5,17.2,49.8,17.2,51.4z"/></g></g></switch><text font-family="'Helvetica Neue', Helvetica, Arial-Unicode, Arial, Sans-serif" font-weight="bold" font-size="5px" fill="#000000" y="115" x="0">Created by Alice Design</text><text font-family="'Helvetica Neue', Helvetica, Arial-Unicode, Arial, Sans-serif" font-weight="bold" font-size="5px" fill="#000000" y="120" x="0">from the Noun Project</text></svg>