<svg viewBox="0.8918918918918921 -5.788 98.91891891891892 112.86" version="1.1" xmlns="http://www.w3.org/2000/svg" style="max-height: 500px" width="98.91891891891892" height="112.86">
 <path d="m84.109 82.363c0 4.2891-1.7617 8.2031-4.5977 11.039-2.8281 2.8398-6.7383 4.5977-11.043 4.5977h-36.941c-4.2969 0-8.2031-1.7617-11.043-4.5977-2.8359-2.8398-4.5977-6.7461-4.5977-11.043v-64.727c0-4.3047 1.7617-8.2148 4.5898-11.047l0.18359-0.17188c2.8203-2.7305 6.6562-4.4219 10.863-4.4219h36.941c4.3047 0 8.2148 1.7617 11.047 4.5898 2.832 2.832 4.5938 6.7461 4.5938 11.047v64.727zm-19.945-14.023c0-1.6562 1.3438-3 3-3s3 1.3438 3 3v12.07c0 1.6562-1.3438 3-3 3s-3-1.3438-3-3zm-17.262 15.07c-1.6562 0-3-1.3438-3-3s1.3438-3 3-3h6.1953c1.6562 0 3 1.3438 3 3s-1.3438 3-3 3zm-17.164 0c-1.6562 0-3-1.3438-3-3s1.3438-3 3-3h6.1953c1.6562 0 3 1.3438 3 3s-1.3438 3-3 3zm34.328-24.141c-1.6562 0-3-1.3438-3-3s1.3438-3 3-3h6.1953c1.6562 0 3 1.3438 3 3s-1.3438 3-3 3zm-17.164 0c-1.6562 0-3-1.3438-3-3s1.3438-3 3-3h6.1953c1.6562 0 3 1.3438 3 3s-1.3438 3-3 3zm-17.164 0c-1.6562 0-3-1.3438-3-3s1.3438-3 3-3h6.1953c1.6562 0 3 1.3438 3 3s-1.3438 3-3 3zm17.164 12.07c-1.6562 0-3-1.3438-3-3s1.3438-3 3-3h6.1953c1.6562 0 3 1.3438 3 3s-1.3438 3-3 3zm-17.164 0c-1.6562 0-3-1.3438-3-3s1.3438-3 3-3h6.1953c1.6562 0 3 1.3438 3 3s-1.3438 3-3 3zm34.328-24.137c-1.6562 0-3-1.3438-3-3s1.3438-3 3-3h6.1953c1.6562 0 3 1.3438 3 3s-1.3438 3-3 3zm-17.164 0c-1.6562 0-3-1.3438-3-3s1.3438-3 3-3h6.1953c1.6562 0 3 1.3438 3 3s-1.3438 3-3 3zm-17.164 0c-1.6562 0-3-1.3438-3-3s1.3438-3 3-3h6.1953c1.6562 0 3 1.3438 3 3s-1.3438 3-3 3zm0-33.477h40.523c1.6562 0 3 1.3438 3 3v15.41c0 1.6562-1.3438 3-3 3h-40.523c-1.6562 0-3-1.3438-3-3v-15.41c0-1.6562 1.3438-3 3-3zm45.543 75.441c1.7461-1.7383 2.8281-4.1484 2.8281-6.8047v-64.727c0-2.6445-1.0859-5.0547-2.8359-6.8047-1.7461-1.7461-4.1562-2.832-6.8047-2.832h-36.941c-2.5859 0-4.9414 1.0312-6.6758 2.6953l-0.12891 0.13672c-1.7461 1.7461-2.832 4.1562-2.832 6.8047v64.727c0 2.6523 1.0859 5.0625 2.8281 6.8086 1.7461 1.7422 4.1602 2.8281 6.8125 2.8281h36.941c2.6445 0 5.0547-1.0859 6.8086-2.8359z"/>
<text fill="#000000" font-family="Arbeit Regular, Helvetica, Arial-Unicode, Arial, Sans-serif" font-weight="bold" font-size="5.0" y="117.5" x="0.0">Created by Tsundere Project</text><text fill="#000000" font-family="Arbeit Regular, Helvetica, Arial-Unicode, Arial, Sans-serif" font-weight="bold" font-size="5.0" y="122.5" x="0.0">from Noun Project</text></svg>