<svg y="0px" x="0px" viewBox="0 3.968 63.52 58.4" xmlns="http://www.w3.org/2000/svg" style="max-height: 500px" width="63.52" height="58.4"><title>_</title><g data-name="Vet Day"><path d="M55,9H53V7a1,1,0,0,0-2,0V9H33V7a1,1,0,0,0-2,0V9H13V7a1,1,0,0,0-2,0V9H9a5.00588,5.00588,0,0,0-5,5V53a5.00588,5.00588,0,0,0,5,5H55a5.00588,5.00588,0,0,0,5-5V14A5.00588,5.00588,0,0,0,55,9ZM9,11h2v2a1,1,0,0,0,2,0V11H31v2a1,1,0,0,0,2,0V11H51v2a1,1,0,0,0,2,0V11h2a3.00328,3.00328,0,0,1,3,3v3.875H6V14A3.00328,3.00328,0,0,1,9,11ZM55,56H9a3.00328,3.00328,0,0,1-3-3V19.875H58V53A3.00328,3.00328,0,0,1,55,56Z"/><path d="M35.81738,34.32275a2.71762,2.71762,0,0,1-.47168-.0415c-1.916-.33789-3.06054-2.63086-2.60351-5.21973s2.30957-4.353,4.23242-4.01513c1.916.33789,3.06055,2.63086,2.60352,5.21972v.00049C39.15918,32.64209,37.55859,34.32275,35.81738,34.32275Zm.69532-7.3164c-.67286,0-1.54786.96972-1.80176,2.40234-.2666,1.51514.29883,2.78223.98242,2.90283.67285.123,1.64746-.877,1.916-2.39209h0c.2666-1.51562-.29883-2.78271-.98243-2.90332A.63.63,0,0,0,36.5127,27.00635Z"/><path d="M40.99414,39.29736a2.33945,2.33945,0,0,1-.80176-.14062,2.67865,2.67865,0,0,1-1.623-1.96045,4.69208,4.69208,0,0,1,.19824-2.68848c.74316-2.04345,2.5293-3.20459,4.0791-2.64453,1.544.5625,2.16992,2.60449,1.42578,4.64844v.001A3.82989,3.82989,0,0,1,40.99414,39.29736Zm1.05274-5.57324c-.38282,0-1.05176.51123-1.4004,1.46777a2.73272,2.73272,0,0,0-.13476,1.52686.7637.7637,0,0,0,.36523.55859c.3418.12256,1.12989-.38867,1.5166-1.45019s.11719-1.95752-.23144-2.08447A.33166.33166,0,0,0,42.04688,33.72412Z"/><path d="M23.00586,39.29736a3.82883,3.82883,0,0,1-3.27832-2.78466v-.001c-.74414-2.04395-.11816-4.08594,1.4248-4.64795,1.55079-.5625,3.33692.60059,4.08008,2.64453a4.69016,4.69016,0,0,1,.19824,2.688,2.67788,2.67788,0,0,1-1.62207,1.96A2.34543,2.34543,0,0,1,23.00586,39.29736Zm-1.39941-3.47021c.38671,1.062,1.17089,1.57959,1.51757,1.44971a.76366.76366,0,0,0,.36426-.55811,2.73063,2.73063,0,0,0-.13476-1.52637c-.3877-1.06347-1.167-1.57812-1.51661-1.44922-.34765.12647-.61718,1.02247-.23046,2.08448Z"/><path d="M28.27539,34.32275c-1.74121,0-3.3418-1.68066-3.76074-4.05615v-.00049c-.457-2.58886.6875-4.88183,2.60351-5.21972,1.917-.34229,3.77539,1.42529,4.23243,4.01465s-.6875,4.88232-2.60352,5.22021A2.71753,2.71753,0,0,1,28.27539,34.32275Zm-1.792-4.40332c.26855,1.51514,1.2373,2.51709,1.916,2.39209.6836-.1206,1.249-1.38769.98243-2.90332-.26856-1.51318-1.22559-2.52783-1.916-2.39209-.68359.12061-1.249,1.3877-.98242,2.90332Z"/><path d="M26.47656,50.86523a5.2236,5.2236,0,0,1-4.17773-1.74218,4.28883,4.28883,0,0,1,.375-5.70508,9.48561,9.48561,0,0,1,1.46582-1.03467,4.64,4.64,0,0,0,1.58008-1.2959,7.16561,7.16561,0,0,0,.65527-1.51025,8.3041,8.3041,0,0,1,.93652-2.0459A5.47576,5.47576,0,0,1,32.044,35.42969h.00293c2.89648,0,4.23535,1.16845,4.84765,2.14892A8.14308,8.14308,0,0,1,37.71,39.54688a5.89044,5.89044,0,0,0,.67676,1.61621,4.08762,4.08762,0,0,0,1.64453,1.33642,6.67054,6.67054,0,0,1,1.3877.91846,4.28824,4.28824,0,0,1,.375,5.70459c-1.458,1.81933-4.09473,1.97021-5.91211,1.54541a8.356,8.356,0,0,1-2.11036-.91553,4.26349,4.26349,0,0,0-1.7246-.68555,4.25641,4.25641,0,0,0-1.72559.686,8.37286,8.37286,0,0,1-2.11035.915A7.72192,7.72192,0,0,1,26.47656,50.86523Zm5.56836-13.43554a3.7343,3.7343,0,0,0-3.083,1.23047,6.72468,6.72468,0,0,0-.69921,1.57617,8.76132,8.76132,0,0,1-.86133,1.93408,6.377,6.377,0,0,1-2.2168,1.918,7.86032,7.86032,0,0,0-1.16894.813,2.26494,2.26494,0,0,0-.15625,2.97119c.82031,1.023,2.5498,1.16406,3.89648.84814a6.68812,6.68812,0,0,0,1.59863-.71875,5.633,5.633,0,0,1,2.69239-.93506,5.63026,5.63026,0,0,1,2.69042.93457,6.69469,6.69469,0,0,0,1.59961.71924c1.34864.31446,3.07715.17334,3.89649-.84863a2.26434,2.26434,0,0,0-.15625-2.9707,4.8658,4.8658,0,0,0-.9961-.64209,6.01851,6.01851,0,0,1-2.333-1.9502,7.58292,7.58292,0,0,1-.94727-2.1665,6.54094,6.54094,0,0,0-.60156-1.50391c-.50195-.80224-1.5625-1.209-3.15234-1.209Z"/></g><text font-family="'Helvetica Neue', Helvetica, Arial-Unicode, Arial, Sans-serif" font-weight="bold" font-size="5px" fill="#000000" y="79" x="0">Created by Andy Horvath</text><text font-family="'Helvetica Neue', Helvetica, Arial-Unicode, Arial, Sans-serif" font-weight="bold" font-size="5px" fill="#000000" y="84" x="0">from the Noun Project</text></svg>