<svg viewBox="-3.1621621621621623 0.20599999999999952 106.21621621621622 100.17" version="1.1" xmlns="http://www.w3.org/2000/svg" style="max-height: 500px" width="106.21621621621622" height="100.17">
 <path fill-rule="evenodd" d="m33.227 35.883c1.043 0.61328 2.1328 0.89844 3.1758 0.89844 0.47266 0 0.94922-0.046875 1.375-0.1875 1.4688-0.37891 2.6992-1.375 3.6016-2.8945 1.375-2.3203 1.6602-5.543 0.85156-8.5781-0.85156-3.0352-2.7461-5.6875-5.0703-7.0156-1.5625-0.85156-3.1289-1.0898-4.5508-0.71094-3.8398 1.043-5.8281 6.1641-4.457 11.473 0.85547 3.0312 2.75 5.6875 5.0742 7.0156zm29.008 1.0938c0.42578 0.14063 0.90234 0.1875 1.3281 0.1875v-0.09375c3.4141 0 7.0156-3.3164 8.2461-7.9141 1.4258-5.2148-0.61328-10.477-4.4531-11.52-0.42578-0.09375-0.90234-0.14062-1.3281-0.14062-1.4219 0-2.8438 0.51953-4.1719 1.5625-1.8945 1.4688-3.3633 3.7461-4.0273 6.3984-0.80469 3.082-0.52344 6.3047 0.85156 8.6289 0.85547 1.5156 2.0859 2.5117 3.5547 2.8906zm-12.23 2.7695c-3.4844 0-6.8203 1.4961-9.1602 4.082l-9.9062 11h-0.003906c-2.6992 3.0469-4.2266 6.9297-4.2266 11.012 0 9.0977 7.375 16.473 16.473 16.473h13.652c9.0977 0 16.473-7.375 16.473-16.473 0-4.0312-1.4766-7.9648-4.2305-11.016l-9.9062-10.996c-2.3398-2.5859-5.6758-4.082-9.1641-4.082zm-6.043 10.641c0-0.95312 0.82422-1.7773 1.7773-1.7773h8.5352c0.94922 0 1.7773 0.82422 1.7773 1.7773v6.1641c0 0.32812 0.26562 0.58984 0.58984 0.58984h6.1641c0.96094 0 1.7773 0.78906 1.7773 1.7812v8.5312c0 0.95312-0.82422 1.7773-1.7773 1.7773h-6.1641c-0.32422 0-0.58984 0.26562-0.58984 0.59375v6.1133c0 0.99219-0.82031 1.7773-1.7773 1.7773h-8.5352c-0.95703 0-1.7773-0.78516-1.7773-1.7773v-6.1133c0-0.32812-0.26563-0.59375-0.58984-0.59375h-6.1172c-0.99219 0-1.7773-0.81641-1.7773-1.7773v-8.5312c0-1 0.77734-1.7812 1.7773-1.7812h6.1172c0.32422 0 0.58984-0.26172 0.58984-0.58984zm32.828 3.2695c0.66016 0.37891 1.4219 0.56641 2.2266 0.56641 0.75781 0 1.5625-0.14062 2.3711-0.47266 1.8945-0.80469 3.457-2.2734 4.6445-4.2656 0.94531-1.5625 1.4688-3.3164 1.4688-4.9766 0-0.42578-0.046875-0.85547-0.09375-1.1875-0.23828-1.8008-1.1406-3.2695-2.3711-3.9336-0.61719-0.42578-1.375-0.61328-2.2734-0.61328-2.5625 0-5.4062 1.8945-7.0156 4.7383-2.2305 3.8398-1.7539 8.4844 1.043 10.145zm-58.211 0.046875c0.80859 0.33203 1.6133 0.51953 2.3711 0.51953 0.80469 0 1.5625-0.1875 2.2266-0.56641 2.75-1.6602 3.2266-6.3047 0.99609-10.145-1.6094-2.8438-4.4531-4.7383-7.0156-4.7383-0.89844 0-1.6562 0.1875-2.2266 0.56641-1.2812 0.66406-2.1797 2.1328-2.3711 3.9336-0.23438 1.9922 0.23828 4.1719 1.375 6.1641 1.1836 1.9883 2.8438 3.5078 4.6445 4.2656zm29.531 20.48h3.793c0.28516 0 0.57031-0.23438 0.57031-0.56641v-6.1133c0-1.043 0.80469-1.8047 1.8008-1.8047h6.1602c0.28516 0 0.57031-0.23438 0.57031-0.56641v-3.793c0-0.28516-0.23828-0.57031-0.57031-0.57031h-6.1602c-0.99609 0-1.8008-0.80469-1.8008-1.8008v-6.1602c0-0.28516-0.23828-0.57031-0.57031-0.57031h-3.793c-0.28516 0-0.57031 0.23828-0.57031 0.57031v6.1602c0 1.043-0.80469 1.8008-1.8008 1.8008h-6.1133c-0.28516 0-0.57031 0.23828-0.57031 0.57031v3.793c0 0.28516 0.23828 0.56641 0.57031 0.56641h6.1133c0.99609 0 1.8008 0.80859 1.8008 1.8047v6.1133c0 0.28516 0.23828 0.56641 0.57031 0.56641z"/>
<text fill="#000000" font-family="Arbeit Regular, Helvetica, Arial-Unicode, Arial, Sans-serif" font-weight="bold" font-size="5.0" y="117.5" x="0.0">Created by Fahrul Saputra</text><text fill="#000000" font-family="Arbeit Regular, Helvetica, Arial-Unicode, Arial, Sans-serif" font-weight="bold" font-size="5.0" y="122.5" x="0.0">from Noun Project</text></svg>