<svg y="0px" x="0px" viewBox="0 3.968 63.52 58.4" xmlns="http://www.w3.org/2000/svg" style="max-height: 500px" width="63.52" height="58.4"><title>_</title><g data-name="Pet Folder"><path d="M57.91162,13.59375H26.87622L23.96143,10.248a1.57059,1.57059,0,0,0-1.17627-.55127H5.68652a1.73941,1.73941,0,0,0-1.645,1.85254V52.25586a2.04959,2.04959,0,0,0,2.04688,2.04736H57.91162a2.04959,2.04959,0,0,0,2.04688-2.04736V15.64063A2.0495,2.0495,0,0,0,57.91162,13.59375Zm.04688,2.04688v1.85485c-.016-.00036-.03083-.00476-.04688-.00476H30.27124l-1.64978-1.89367ZM22.5708,11.69678,27.619,17.49072H6.08838c-.01581,0-.0304.00428-.04608.00464l.00213-5.79858ZM57.9585,52.25586a.04731.04731,0,0,1-.04688.04736L6.0415,52.25586l.04688-32.76514,51.87012.04688Z"/><path d="M35.4502,32.72607a2.56683,2.56683,0,0,1-.44239-.03857c-1.78564-.31494-2.85351-2.43652-2.43164-4.82959a5.27529,5.27529,0,0,1,1.31641-2.72656,2.75488,2.75488,0,0,1,4.74658.83691,5.279,5.279,0,0,1,.30469,3.0127h0C38.55664,31.1748,37.0708,32.72607,35.4502,32.72607Zm.625-6.61279a1.18174,1.18174,0,0,0-.73926.40235,3.31638,3.31638,0,0,0-.79,1.68945c-.23194,1.31592.23584,2.41162.80908,2.51269.57422.09717,1.38721-.76953,1.61914-2.08447a3.31331,3.31331,0,0,0-.16455-1.85791c-.07812-.17627-.29687-.59326-.644-.6543A.5173.5173,0,0,0,36.0752,26.11328Z"/><path d="M40.12891,37.22217a2.21023,2.21023,0,0,1-.75733-.13281c-1.4458-.52637-2.03711-2.42627-1.34619-4.32471a4.34193,4.34193,0,0,1,1.459-2.02,2.36869,2.36869,0,0,1,3.87841,1.41162,4.34319,4.34319,0,0,1-.18066,2.48486A3.55364,3.55364,0,0,1,40.12891,37.22217Zm.94873-5.0376a.77947.77947,0,0,0-.4126.17383,2.37239,2.37239,0,0,0-.76025,1.09033c-.33985.93457-.09571,1.67139.15087,1.76123.24463.08936.90674-.31787,1.24659-1.25244a2.36969,2.36969,0,0,0,.11865-1.32373.61358.61358,0,0,0-.26856-.437A.21033.21033,0,0,0,41.07764,32.18457Z"/><path d="M23.87158,37.22217a3.55315,3.55315,0,0,1-3.05371-2.58106,4.34319,4.34319,0,0,1-.18066-2.48486,2.36842,2.36842,0,0,1,3.87842-1.41162,4.56738,4.56738,0,0,1,1.64013,4.50488,2.51149,2.51149,0,0,1-1.52685,1.83936A2.20325,2.20325,0,0,1,23.87158,37.22217Zm-.94922-5.0376a.21733.21733,0,0,0-.07422.01172.61464.61464,0,0,0-.269.4375,2.36969,2.36969,0,0,0,.11865,1.32373c.33985.93408,1.00391,1.34766,1.24707,1.252a.61206.61206,0,0,0,.26856-.437A2.5857,2.5857,0,0,0,23.335,32.3584.77551.77551,0,0,0,22.92236,32.18457Z"/><path d="M28.63379,32.72607c-1.62061,0-3.10645-1.55078-3.49365-3.74511h0a5.27893,5.27893,0,0,1,.30468-3.0127,2.7546,2.7546,0,0,1,4.7461-.83691,5.27778,5.27778,0,0,1,1.31689,2.72656c.42188,2.39307-.646,4.51416-2.43115,4.82959A2.5724,2.5724,0,0,1,28.63379,32.72607ZM27.10986,28.6333c.23194,1.31592,1.0503,2.17969,1.61963,2.08447.57276-.10107,1.04053-1.19726.8086-2.5122a3.31623,3.31623,0,0,0-.79-1.68994c-.13379-.13917-.48633-.45948-.8291-.39454-.34766.061-.56641.478-.64454.6543a3.31331,3.31331,0,0,0-.16455,1.85791Z"/><path d="M37.07422,47.67676a7.05472,7.05472,0,0,1-1.5874-.18067,7.64953,7.64953,0,0,1-1.93262-.83642,3.80588,3.80588,0,0,0-1.51221-.60791,3.80585,3.80585,0,0,0-1.5122.60791,7.64968,7.64968,0,0,1-1.93262.83642c-1.665.39014-4.09473.24854-5.43946-1.42968a3.973,3.973,0,0,1,.34913-5.2876,8.65639,8.65639,0,0,1,1.33886-.94629,4.127,4.127,0,0,0,1.39746-1.1416,6.39965,6.39965,0,0,0,.58155-1.34278,7.56462,7.56462,0,0,1,.8584-1.873,5.04472,5.04472,0,0,1,4.35644-1.94092H32.043c2.66162,0,3.896,1.081,4.4624,1.98779a7.54076,7.54076,0,0,1,.74756,1.80176,5.26482,5.26482,0,0,0,.59814,1.43359,3.57576,3.57576,0,0,0,1.45264,1.17774,6.08323,6.08323,0,0,1,1.27295.84424,3.97236,3.97236,0,0,1,.34961,5.28711A4.817,4.817,0,0,1,37.07422,47.67676Zm-5.03223-3.625a5.16327,5.16327,0,0,1,2.479.85693,5.98932,5.98932,0,0,0,1.41992.64014c1.189.27539,2.71.1582,3.4248-.7334a1.97053,1.97053,0,0,0-.13037-2.55322,4.34,4.34,0,0,0-.88183-.56739,5.52642,5.52642,0,0,1-2.14161-1.792,6.92738,6.92738,0,0,1-.86816-1.9834,5.856,5.856,0,0,0-.53467-1.33789c-.43408-.69482-1.36523-1.04736-2.7666-1.04736H32.04A3.28408,3.28408,0,0,0,29.3335,36.605a6.00087,6.00087,0,0,0-.62061,1.40234,8.013,8.013,0,0,1-.78809,1.76661,5.84375,5.84375,0,0,1-2.03369,1.76367,7.06644,7.06644,0,0,0-1.04248.72461,1.96993,1.96993,0,0,0-.13037,2.55322c.71485.89258,2.23633,1.01025,3.42481.7334a5.9895,5.9895,0,0,0,1.41992-.64014A5.1632,5.1632,0,0,1,32.042,44.05176Z"/></g><text font-family="'Helvetica Neue', Helvetica, Arial-Unicode, Arial, Sans-serif" font-weight="bold" font-size="5px" fill="#000000" y="79" x="0">Created by Andy Horvath</text><text font-family="'Helvetica Neue', Helvetica, Arial-Unicode, Arial, Sans-serif" font-weight="bold" font-size="5px" fill="#000000" y="84" x="0">from the Noun Project</text></svg>