<svg viewBox="-5 -10 108.64864864864865 117.17999999999999" version="1.1" xmlns="http://www.w3.org/2000/svg" style="max-height: 500px" width="108.64864864864865" height="117.17999999999999">
 <path d="m74.723 44.176c3.2148 13.625-5.2188 27.273-18.844 30.488-13.621 3.2188-27.273-5.2188-30.488-18.84-3.2148-13.625 5.2227-27.273 18.844-30.488 13.621-3.2188 27.273 5.2188 30.488 18.84z"/>
 <path d="m48.129 17.609c0.15234 0.91406 0.94141 1.5898 1.8711 1.5898s1.7188-0.67188 1.8711-1.5898l1.4375-8.7109c0.33594-2.043-1.2383-3.8984-3.3086-3.8984s-3.6445 1.8555-3.3086 3.8984z"/>
 <path d="m51.871 82.391c-0.15234-0.91406-0.94141-1.5898-1.8711-1.5898s-1.7188 0.67188-1.8711 1.5898l-1.4375 8.7109c-0.33594 2.043 1.2383 3.8984 3.3086 3.8984s3.6445-1.8555 3.3086-3.8984z"/>
 <path d="m91.102 46.691-8.7109 1.4375c-0.91406 0.15234-1.5898 0.94141-1.5898 1.8711s0.67188 1.7188 1.5898 1.8711l8.7109 1.4375c2.043 0.33594 3.8984-1.2383 3.8984-3.3086s-1.8555-3.6445-3.8984-3.3086z"/>
 <path d="m19.199 50c0-0.92969-0.67188-1.7188-1.5898-1.8711l-8.7109-1.4375c-2.043-0.33594-3.8984 1.2383-3.8984 3.3086s1.8555 3.6445 3.8984 3.3086l8.7109-1.4375c0.91406-0.15234 1.5898-0.94141 1.5898-1.8711z"/>
 <path d="m81.402 76.727-7.1758-5.1445c-0.75391-0.53906-1.7891-0.45703-2.4453 0.19922s-0.74219 1.6914-0.19922 2.4453l5.1445 7.1758c1.207 1.6836 3.6328 1.8789 5.0938 0.41797 1.4648-1.4648 1.2656-3.8906-0.41797-5.0938z"/>
 <path d="m18.598 23.273 7.1758 5.1445c0.75391 0.53906 1.7891 0.45703 2.4453-0.19922s0.74219-1.6914 0.19922-2.4453l-5.1445-7.1758c-1.207-1.6836-3.6328-1.8789-5.0938-0.41797-1.4648 1.4648-1.2656 3.8906 0.41797 5.0938z"/>
 <path d="m25.773 71.578-7.1758 5.1445c-1.6836 1.207-1.8789 3.6328-0.41797 5.0938 1.4648 1.4648 3.8906 1.2656 5.0938-0.41797l5.1445-7.1758c0.53906-0.75391 0.45703-1.7891-0.19922-2.4453s-1.6914-0.74219-2.4453-0.19922z"/>
 <path d="m74.227 28.422 7.1758-5.1445c1.6836-1.207 1.8789-3.6328 0.41797-5.0938-1.4648-1.4648-3.8906-1.2656-5.0938 0.41797l-5.1445 7.1758c-0.53906 0.75391-0.45703 1.7891 0.19922 2.4453s1.6914 0.74219 2.4453 0.19922z"/>
<text fill="#000000" font-family="Arbeit Regular, Helvetica, Arial-Unicode, Arial, Sans-serif" font-weight="bold" font-size="5.0" y="117.5" x="0.0">Created by mbok sumirna</text><text fill="#000000" font-family="Arbeit Regular, Helvetica, Arial-Unicode, Arial, Sans-serif" font-weight="bold" font-size="5.0" y="122.5" x="0.0">from Noun Project</text></svg>