<svg xmlns="http://www.w3.org/2000/svg" viewBox="0 0 512 640" x="0px" y="0px"><title>33.Sleep</title><g data-name="33.Sleep"><path d="M499.7259,344.908A258.5247,258.5247,0,0,1,276.5913,485.5539C129.81,489.4885,8.9544,370.1982,11.0262,223.3787A257.959,257.959,0,0,1,103.3821,29.0263c8.23-6.9095,20.4231.5645,18.1,11.056a259.156,259.156,0,0,0-6.0846,52.2262c-2.18,146.6924,118.5434,266.0979,265.2046,262.3678a257.1951,257.1951,0,0,0,104.35-24.9169C494.5937,325.1645,504.5988,335.4038,499.7259,344.908Z"/><path d="M361.9635,133.0592h62.7128a10.6661,10.6661,0,0,1,9.265,15.9505l-43.0489,75.4755a3.6193,3.6193,0,0,0,3.1439,5.4125h32.7876a13.0511,13.0511,0,0,1,13.0511,13.0511h0A13.0511,13.0511,0,0,1,426.8239,256H361.1733a12.0167,12.0167,0,0,1-10.4263-17.9912L393.1616,163.99a3.2252,3.2252,0,0,0-2.7982-4.8287h-28.4A13.0511,13.0511,0,0,1,348.9124,146.11h0A13.0511,13.0511,0,0,1,361.9635,133.0592Z"/><path d="M223.2989,38.2815h62.7128a10.6661,10.6661,0,0,1,9.2649,15.95l-43.0489,75.4755a3.6194,3.6194,0,0,0,3.1439,5.4125h32.7876A13.0511,13.0511,0,0,1,301.21,148.1711h0a13.0512,13.0512,0,0,1-13.0511,13.0512H222.5086a12.0167,12.0167,0,0,1-10.4262-17.9912L254.497,69.2124a3.2252,3.2252,0,0,0-2.7983-4.8286h-28.4a13.0512,13.0512,0,0,1-13.0512-13.0511h0A13.0512,13.0512,0,0,1,223.2989,38.2815Z"/></g><text x="0" y="527" fill="#000000" font-size="5px" font-weight="bold" font-family="'Helvetica Neue', Helvetica, Arial-Unicode, Arial, Sans-serif">Created by BEARicons</text><text x="0" y="532" fill="#000000" font-size="5px" font-weight="bold" font-family="'Helvetica Neue', Helvetica, Arial-Unicode, Arial, Sans-serif">from the Noun Project</text></svg>
