<svg y="0px" x="0px" viewBox="0 0 64.96 64.48" xmlns="http://www.w3.org/2000/svg" style="max-height: 500px" width="64.96" height="64.48"><title>_</title><g><path d="M37.36719,37.0874a4.85227,4.85227,0,0,1-1.88281-1.57763,6.05274,6.05274,0,0,1-.76221-1.73633,4.89685,4.89685,0,0,0-.4419-1.11133,2.62888,2.62888,0,0,0-2.24414-.82813,2.67928,2.67928,0,0,0-2.19775.85352,5.04918,5.04918,0,0,0-.51416,1.166,7.03711,7.03711,0,0,1-.68848,1.5415,5.11625,5.11625,0,0,1-1.78613,1.55371,5.92412,5.92412,0,0,0-.87012.60352,1.53344,1.53344,0,0,0-.0957,1.98681,2.8642,2.8642,0,0,0,2.78369.57666,5.03826,5.03826,0,0,0,1.17822-.5332,4.59211,4.59211,0,0,1,2.18994-.751,4.59215,4.59215,0,0,1,2.18995.751,5.03275,5.03275,0,0,0,1.17822.53271,2.865,2.865,0,0,0,2.78418-.57617,1.53345,1.53345,0,0,0-.0957-1.98681A3.60547,3.60547,0,0,0,37.36719,37.0874Z"/><path d="M24.4043,31.00342a2.07056,2.07056,0,0,0-.69678-1.91358.45839.45839,0,0,0-.28125-.11963c-.08838.03223-.32227.55225-.043,1.32081.28125.771.79688,1.01318.88135.98535C24.28613,31.26855,24.3584,31.18945,24.4043,31.00342Z"/><path d="M35.03418,27.42725c.35791.06494,1.02441-.56836,1.21777-1.666a2.6878,2.6878,0,0,0-.13086-1.50537c-.11914-.27-.28515-.44824-.44384-.47607a.289.289,0,0,0-.05079-.0044c-.36621,0-.98242.62354-1.167,1.66992C34.26563,26.5415,34.67725,27.36426,35.03418,27.42725Z"/><path d="M58,21.22961H42.77032V6a1,1,0,0,0-1-1H22.22968a1,1,0,0,0-1,1V21.22961H6a1,1,0,0,0-1,1V41.77032a1,1,0,0,0,1,1H21.22968V58a1,1,0,0,0,1,1H41.77032a1,1,0,0,0,1-1V42.77032H58a1,1,0,0,0,1-1V22.22961A1,1,0,0,0,58,21.22961ZM32.48975,25.09766c.37548-2.12647,1.9292-3.57129,3.53466-3.2876a2.65726,2.65726,0,0,1,1.92627,1.63818,4.66426,4.66426,0,0,1,.271,2.66065c-.34326,1.94775-1.6748,3.32324-3.13135,3.32324A2.30844,2.30844,0,0,1,34.687,29.397C33.0791,29.11279,32.11426,27.22461,32.48975,25.09766Zm-6.44043-1.64942a2.65711,2.65711,0,0,1,1.92675-1.63818c1.606-.28565,3.1587,1.16113,3.53418,3.2876.37549,2.12695-.58935,4.01513-2.19677,4.29931a2.314,2.314,0,0,1-.40381.03516c-1.45654,0-2.78809-1.37549-3.13135-3.32324A4.66426,4.66426,0,0,1,26.04932,23.44824Zm-4.54493,7.52735-.00048-.00049c-.61817-1.7002-.07471-3.40625,1.23828-3.88428a2.29146,2.29146,0,0,1,2.14648.38525A4.04937,4.04937,0,0,1,26.34619,31.481a2.29085,2.29085,0,0,1-1.39746,1.6748,2.036,2.036,0,0,1-.69629.12256A3.18068,3.18068,0,0,1,21.50439,30.97559ZM39.74854,40.79c-1.19288,1.48779-3.33252,1.61621-4.79932,1.273a6.64009,6.64009,0,0,1-1.68945-.72949,3.20242,3.20242,0,0,0-1.22413-.502,3.20081,3.20081,0,0,0-1.22363.502,6.64646,6.64646,0,0,1-1.68994.73,6.18272,6.18272,0,0,1-1.38916.15771A4.26207,4.26207,0,0,1,24.32324,40.79a3.54744,3.54744,0,0,1,.31446-4.72119,7.60691,7.60691,0,0,1,1.167-.8252A3.43624,3.43624,0,0,0,26.9541,34.312a5.37118,5.37118,0,0,0,.48194-1.11767,6.70672,6.70672,0,0,1,.752-1.63672A4.456,4.456,0,0,1,32.03613,29.834c2.34375,0,3.43653.96192,3.94043,1.76856a6.58553,6.58553,0,0,1,.65528,1.57519,4.39133,4.39133,0,0,0,.49218,1.18653,2.943,2.943,0,0,0,1.19287.96338,5.33373,5.33373,0,0,1,1.1167.74121A3.547,3.547,0,0,1,39.74854,40.79Zm2.74755-9.81494-.00048.00049a3.18015,3.18015,0,0,1-2.748,2.30273,2.0317,2.0317,0,0,1-.69678-.123,2.28963,2.28963,0,0,1-1.397-1.67431,4.05105,4.05105,0,0,1,1.45752-4.00489,2.28819,2.28819,0,0,1,2.147-.38476C42.5708,27.56885,43.11426,29.2749,42.49609,30.9751Z"/><path d="M28.96631,27.42725c.35644-.063.76807-.88575.57422-1.98194-.18457-1.04638-.80078-1.66992-1.167-1.66992a.28348.28348,0,0,0-.0503.0044c-.15918.02783-.32519.20605-.44433.47607a2.6878,2.6878,0,0,0-.13086,1.50537C27.94141,26.8584,28.605,27.49609,28.96631,27.42725Z"/><path d="M40.56006,28.96875a.53216.53216,0,0,0-.26758.12109,2.07254,2.07254,0,0,0-.69678,1.91358c.0459.186.11817.26513.13916.27246.09034.04053.60205-.21631.88184-.98486.2793-.76856.04541-1.28858-.04248-1.32032Z"/></g><text font-family="'Helvetica Neue', Helvetica, Arial-Unicode, Arial, Sans-serif" font-weight="bold" font-size="5px" fill="#000000" y="79" x="0">Created by Andy Horvath</text><text font-family="'Helvetica Neue', Helvetica, Arial-Unicode, Arial, Sans-serif" font-weight="bold" font-size="5px" fill="#000000" y="84" x="0">from the Noun Project</text></svg>