<svg viewBox="-5 -10 108.64864864864865 117.17999999999999" version="1.1" xmlns="http://www.w3.org/2000/svg" style="max-height: 500px" width="108.64864864864865" height="117.17999999999999">
 <path d="m82.453 52.094-4.3281-7.2188v-23.781c0-4.7969-1.875-9.2969-5.2656-12.703-3.6719-3.6719-8.7344-5.5781-13.938-5.2188-9.3906 0.625-16.734 8.7344-16.734 18.438v57.297c0 4.7344-3.8594 8.5938-8.5938 8.5938s-8.5938-3.8594-8.5938-8.5938v-38.281c1.7188 0 3.125-1.4062 3.125-3.125v-3.125c0-1.4844-1.0469-2.7344-2.4531-3.0469h-0.015625c0.5625-0.9375 0.90625-2.0312 0.90625-3.2031 0-2.9062-2-5.3281-4.6875-6.0312v-2.4688c0-1.9219-1.2344-3.5938-3.1406-4.2812-1.9531-0.70312-3.6094-2.8281-2.9844-5.5469 0.375-1.6719 1.7656-3.0469 3.4375-3.4375 1.4688-0.34375 2.9062-0.015625 4.0469 0.89062 1.125 0.89062 1.7656 2.2344 1.7656 3.6719 0 0.85938 0.70312 1.5625 1.5625 1.5625s1.5625-0.70312 1.5625-1.5625c0-2.3906-1.0781-4.625-2.9375-6.1094-1.875-1.5-4.3125-2.0312-6.6875-1.5-2.8594 0.65625-5.125 2.9219-5.7812 5.7812-0.89062 3.9062 1.25 7.8438 4.9844 9.1719 0.64062 0.23438 1.0625 0.75 1.0625 1.3438v2.4688c-2.6875 0.70312-4.6875 3.125-4.6875 6.0312 0 1.1719 0.34375 2.2656 0.90625 3.2031h-0.015625c-1.4062 0.3125-2.4531 1.5625-2.4531 3.0469v3.125c0 1.7188 1.4062 3.125 3.125 3.125v38.281c0 9.9062 8.0625 17.969 17.969 17.969s17.969-8.0625 17.969-17.969v-57.797c0-2.2969 0.89062-4.4531 2.5-6.0781 1.5781-1.5469 3.6406-2.4531 5.8281-2.5156 2.25-0.078125 4.375 0.79688 6.0469 2.4219 1.7812 1.7344 2.8125 4.1406 2.8125 6.6094v23.344l-4.3281 7.2188c-3.2969 5.5-5.0469 11.797-5.0469 18.219 0 7.75 6.3125 14.062 14.062 14.062s14.062-6.3125 14.062-14.062c0-6.4219-1.75-12.719-5.0469-18.219zm-9.9375 4.7344 0.92188-1.8125 0.96875 1.9219c2.4219 4.0469 3.7031 8.6719 3.7031 13.391 0 2.5781-2.1094 4.6875-4.6875 4.6875s-4.6875-2.1094-4.6875-4.6875c0-4.7188 1.2812-9.3438 3.7656-13.484zm-0.64062-22.453h3.125v3.125h-3.125zm0 6.25h3.125v3.125h-3.125zm-46.875-3.125h-9.375v-3.125h9.375zm-4.6875-12.5c1.7188 0 3.125 1.4062 3.125 3.125s-1.4062 3.125-3.125 3.125-3.125-1.4062-3.125-3.125 1.4062-3.125 3.125-3.125zm53.125 56.25c-6.0312 0-10.938-4.9062-10.938-10.938s1.5938-11.594 4.5938-16.609l3.0938-5.1406 1.5 3-1.9062 3.75c-2.7188 4.5312-4.1562 9.7188-4.1562 15 0 4.3125 3.5 7.8125 7.8125 7.8125s7.8125-3.5 7.8125-7.8125c0-5.2812-1.4375-10.469-4.0938-14.906l-2.3125-4.5469-1.9844-3.9844h2.8438l4.0938 6.8281c3.0156 5.0156 4.5938 10.766 4.5938 16.609s-4.9062 10.938-10.938 10.938z"/>
<text fill="#000000" font-family="Arbeit Regular, Helvetica, Arial-Unicode, Arial, Sans-serif" font-weight="bold" font-size="5.0" y="117.5" x="0.0">Created by Roat Studio</text><text fill="#000000" font-family="Arbeit Regular, Helvetica, Arial-Unicode, Arial, Sans-serif" font-weight="bold" font-size="5.0" y="122.5" x="0.0">from Noun Project</text></svg>
